#!OML:ASF F:\VICON\USERDATA\INSTALL\rory3\rory3.ASF
:FULLY-SPECIFIED
:DEGREES
3919
root -1.89572 17.6276 0.531486 4.45426 2.74008 0.685253
lowerback 1.35561 -0.706809 -3.48342
upperback 1.53643 -0.976978 1.80526
thorax 0.908554 -0.53518 3.81709
lowerneck -25.4523 -2.6053 -10.2046
upperneck 20.5946 -1.47778 6.64175
head 10.9836 -0.636206 3.87727
rclavicle 6.26172e-015 -2.18663e-014
rhumerus -22.1921 -40.8073 -3.58726
rradius 33.3471
rwrist 28.5026
rhand -29.8321 -5.36826
rfingers 7.12502
rthumb -3.15533 -35.3247
lclavicle 6.26172e-015 -2.18663e-014
lhumerus -15.5845 31.5325 12.284
lradius 32.0103
lwrist -8.007
lhand -19.7082 23.1967
lfingers 7.12502
lthumb 6.62148 53.0731
rfemur -11.9781 0.287452 11.5012
rtibia 32.392
rfoot -22.9935 -6.50657
rtoes 8.7511
lfemur -10.5299 -1.92448 -15.2867
ltibia 28.6267
lfoot -17.2686 4.0404
ltoes -22.6978
3920
root -1.89659 17.6272 0.531663 4.35732 2.61698 0.657901
lowerback 1.3742 -0.67079 -3.453
upperback 1.53074 -0.929306 1.80602
thorax 0.887322 -0.510463 3.80085
lowerneck -25.3095 -2.57563 -10.2049
upperneck 20.6095 -1.45856 6.66446
head 10.9615 -0.626662 3.88831
rclavicle 6.4605e-016 1.19271e-014
rhumerus -21.0728 -40.9409 -3.75779
rradius 33.4634
rwrist 28.5924
rhand -29.7495 -5.41255
rfingers 7.12502
rthumb -3.07556 -35.3701
lclavicle 6.4605e-016 1.19271e-014
lhumerus -14.7527 31.624 11.9768
lradius 32.1777
lwrist -8.06335
lhand -19.8104 23.5333
lfingers 7.12502
lthumb 6.52282 53.4129
rfemur -11.9007 0.401606 11.529
rtibia 32.3815
rfoot -22.9808 -6.45719
rtoes 8.88862
lfemur -10.3757 -1.85278 -15.2739
ltibia 28.623
lfoot -17.2852 4.13734
ltoes -22.8219
3921
root -1.89721 17.63 0.533277 4.28386 2.51349 0.626919
lowerback 1.35623 -0.657857 -3.40982
upperback 1.5068 -0.911307 1.80155
thorax 0.870264 -0.500224 3.77168
lowerneck -25.1884 -2.52703 -10.2442
upperneck 20.6794 -1.41491 6.75408
head 10.962 -0.601312 3.93662
rclavicle 1.09829e-014 -1.15295e-014
rhumerus -19.9317 -40.9663 -4.05007
rradius 33.6575
rwrist 28.6349
rhand -29.7779 -5.78304
rfingers 7.12502
rthumb -3.10292 -35.7402
lclavicle 1.09829e-014 -1.15295e-014
lhumerus -13.8853 31.8483 11.6857
lradius 32.2762
lwrist -8.27785
lhand -19.7917 23.598
lfingers 7.12502
lthumb 6.54089 53.4769
rfemur -11.8384 0.442484 11.5665
rtibia 32.3547
rfoot -22.9119 -6.49763
rtoes 8.36862
lfemur -10.2577 -1.80779 -15.2536
ltibia 28.6377
lfoot -17.3322 4.19709
ltoes -22.8562
3922
root -1.89855 17.6315 0.533541 4.2354 2.4468 0.625689
lowerback 1.34338 -0.66588 -3.43739
upperback 1.46279 -0.922177 1.82487
thorax 0.834112 -0.504586 3.81159
lowerneck -25.154 -2.50539 -10.2299
upperneck 20.8193 -1.39357 6.73766
head 11.0055 -0.595658 3.9353
rclavicle 1.19271e-015 2.0276e-014
rhumerus -18.7356 -40.8197 -4.41405
rradius 33.9009
rwrist 28.4159
rhand -30.0149 -5.8172
rfingers 7.12502
rthumb -3.33184 -35.7709
lclavicle 1.19271e-015 2.0276e-014
lhumerus -12.9165 32.305 11.5699
lradius 32.2387
lwrist -8.57201
lhand -19.9232 23.5504
lfingers 7.12502
lthumb 6.41397 53.4333
rfemur -11.8274 0.428838 11.5945
rtibia 32.341
rfoot -22.7939 -6.71025
rtoes 7.05201
lfemur -10.1821 -1.81108 -15.2545
ltibia 28.6339
lfoot -17.3201 4.23667
ltoes -22.6796
3923
root -1.899 17.6305 0.531692 4.18793 2.37946 0.646227
lowerback 1.3324 -0.662717 -3.48257
upperback 1.39514 -0.918434 1.85574
thorax 0.771733 -0.50084 3.86944
lowerneck -25.0506 -2.50242 -10.1702
upperneck 20.9293 -1.39029 6.601
head 11.026 -0.610369 3.87682
rclavicle 3.57812e-015 1.35174e-014
rhumerus -17.4515 -40.7709 -4.83745
rradius 34.1091
rwrist 28.4334
rhand -30.1088 -5.82936
rfingers 7.12502
rthumb -3.42253 -35.7816
lclavicle 3.57812e-015 1.35174e-014
lhumerus -11.9282 32.4215 11.5631
lradius 32.2877
lwrist -8.5803
lhand -19.963 23.5769
lfingers 7.12502
lthumb 6.37551 53.4609
rfemur -11.8253 0.271654 11.6008
rtibia 32.3279
rfoot -22.5469 -6.9029
rtoes 4.6542
lfemur -10.1272 -1.81721 -15.2851
ltibia 28.6219
lfoot -17.2717 4.31461
ltoes -22.6733
3924
root -1.89991 17.6316 0.529271 4.1197 2.28452 0.708796
lowerback 1.3205 -0.64292 -3.54534
upperback 1.35557 -0.892272 1.84452
thorax 0.736172 -0.486787 3.89335
lowerneck -24.9563 -2.49989 -10.0899
upperneck 20.9983 -1.40268 6.50021
head 11.0345 -0.624896 3.8248
rclavicle 9.29318e-015 -1.86858e-014
rhumerus -16.1169 -40.9195 -5.34321
rradius 34.2704
rwrist 28.7844
rhand -29.9758 -5.95215
rfingers 7.12502
rthumb -3.29411 -35.9065
lclavicle 9.29318e-015 -1.86858e-014
lhumerus -10.8543 32.4992 11.6301
lradius 32.3397
lwrist -8.58936
lhand -20.0282 23.5899
lfingers 7.12502
lthumb 6.31256 53.4758
rfemur -11.7661 0.333584 11.5255
rtibia 32.3184
rfoot -22.4931 -6.88377
rtoes 4.5957
lfemur -10.0365 -1.82281 -15.372
ltibia 28.6126
lfoot -17.2629 4.42735
ltoes -22.7832
3925
root -1.90111 17.6346 0.529019 4.09147 2.17059 0.680136
lowerback 1.20138 -0.603972 -3.51566
upperback 1.35471 -0.836613 1.86185
thorax 0.796647 -0.460041 3.89283
lowerneck -24.903 -2.50422 -10.1034
upperneck 21.0171 -1.40385 6.47757
head 11.0319 -0.630516 3.81845
rclavicle -9.93923e-017 2.38542e-015
rhumerus -14.677 -41.2199 -5.92309
rradius 34.2765
rwrist 29.2356
rhand -29.8773 -6.02201
rfingers 7.12502
rthumb -3.19892 -35.9778
lclavicle -9.93923e-017 2.38542e-015
lhumerus -9.59884 32.8212 11.8904
lradius 32.3183
lwrist -8.81288
lhand -19.8966 23.4558
lfingers 7.12502
lthumb 6.43965 53.3379
rfemur -11.7275 0.573678 11.5149
rtibia 32.3155
rfoot -22.6893 -6.55137
rtoes 7.28209
lfemur -9.97106 -1.82149 -15.3606
ltibia 28.6065
lfoot -17.3148 4.57292
ltoes -22.836
3926
root -1.90067 17.6364 0.528154 4.09431 2.08319 0.625258
lowerback 1.03353 -0.588296 -3.44702
upperback 1.33548 -0.810614 1.88658
thorax 0.867871 -0.447717 3.87771
lowerneck -24.7762 -2.49726 -10.1089
upperneck 20.9784 -1.3973 6.44883
head 10.9936 -0.632554 3.80758
rclavicle -6.80837e-015 7.95139e-016
rhumerus -13.1551 -41.3018 -6.65975
rradius 34.2758
rwrist 29.5137
rhand -29.8877 -6.25341
rfingers 7.12502
rthumb -3.20899 -36.209
lclavicle -6.80837e-015 7.95139e-016
lhumerus -8.32644 33.1763 12.2303
lradius 32.2523
lwrist -9.24754
lhand -19.6867 23.244
lfingers 7.12502
lthumb 6.64231 53.1198
rfemur -11.7361 0.74204 11.5514
rtibia 32.3173
rfoot -22.8103 -6.36641
rtoes 8.97691
lfemur -9.93191 -1.89059 -15.3147
ltibia 28.5862
lfoot -17.3572 4.70037
ltoes -22.5788
3927
root -1.90048 17.6354 0.524611 4.06486 2.06598 0.634671
lowerback 0.959663 -0.601652 -3.45227
upperback 1.25923 -0.82664 1.89422
thorax 0.832596 -0.453761 3.88819
lowerneck -24.5065 -2.47116 -10.1323
upperneck 20.9379 -1.38048 6.44824
head 10.9278 -0.629486 3.81081
rclavicle 4.91992e-015 1.03368e-014
rhumerus -11.7379 -41.0143 -7.4222
rradius 34.3759
rwrist 29.5112
rhand -29.8624 -6.44024
rfingers 7.12502
rthumb -3.18454 -36.3962
lclavicle 4.91992e-015 1.03368e-014
lhumerus -7.09852 33.2164 12.5787
lradius 32.1633
lwrist -9.40845
lhand -19.6151 23.2156
lfingers 7.12502
lthumb 6.71141 53.0892
rfemur -11.7172 0.765214 11.5419
rtibia 32.3187
rfoot -22.8001 -6.371
rtoes 9.00296
lfemur -9.86991 -1.97236 -15.3274
ltibia 28.5551
lfoot -17.3348 4.74591
ltoes -22.3227
3928
root -1.90044 17.6344 0.520495 4.01144 2.04551 0.641957
lowerback 0.897104 -0.598479 -3.44098
upperback 1.2188 -0.820758 1.90448
thorax 0.825542 -0.449919 3.89195
lowerneck -24.4613 -2.49776 -10.1944
upperneck 21.0795 -1.40558 6.45726
head 10.9754 -0.648192 3.82394
rclavicle 1.2275e-014 -2.70347e-014
rhumerus -10.5219 -40.4471 -8.07747
rradius 34.5892
rwrist 29.2004
rhand -29.9737 -6.76286
rfingers 7.12502
rthumb -3.29209 -36.7172
lclavicle 1.2275e-014 -2.70347e-014
lhumerus -5.81041 33.3338 13.0783
lradius 32.1025
lwrist -9.49912
lhand -19.6252 23.3181
lfingers 7.12502
lthumb 6.70161 53.192
rfemur -11.6837 0.770175 11.5372
rtibia 32.3213
rfoot -22.7842 -6.37755
rtoes 8.85316
lfemur -9.80586 -1.92626 -15.3396
ltibia 28.5257
lfoot -17.2614 4.74868
ltoes -22.4208
3929
root -1.90022 17.6343 0.517755 3.96326 1.98986 0.68123
lowerback 0.808463 -0.595276 -3.45425
upperback 1.20824 -0.813928 1.8929
thorax 0.863808 -0.447182 3.88649
lowerneck -24.5318 -2.49941 -10.1382
upperneck 21.2666 -1.4048 6.37788
head 11.057 -0.656173 3.79066
rclavicle -1.75924e-014 2.0276e-014
rhumerus -9.12444 -40.1594 -8.89559
rradius 34.6103
rwrist 29.1751
rhand -29.943 -7.02218
rfingers 7.12502
rthumb -3.2624 -36.977
lclavicle -1.75924e-014 2.0276e-014
lhumerus -4.57034 33.3716 13.596
lradius 32.1333
lwrist -9.48
lhand -19.5502 23.5689
lfingers 7.12502
lthumb 6.77406 53.4405
rfemur -11.6819 0.752047 11.4892
rtibia 32.3473
rfoot -22.7403 -6.3461
rtoes 8.76433
lfemur -9.72934 -1.92964 -15.3934
ltibia 28.4824
lfoot -17.2467 4.83449
ltoes -22.4831
